<?xml version="1.0" standalone="no"?>
<!DOCTYPE svg PUBLIC "-//W3C//DTD SVG 20010904//EN"
 "http://www.w3.org/TR/2001/REC-SVG-20010904/DTD/svg10.dtd">
<svg version="1.0" xmlns="http://www.w3.org/2000/svg"
 width="112.000000pt" height="45.000000pt" viewBox="0 0 112.000000 45.000000"
 preserveAspectRatio="xMidYMid meet">

<g transform="translate(0.000000,45.000000) scale(0.100000,-0.100000)"
fill="#000000" stroke="none">
<path d="M582 315 c0 -16 2 -22 5 -12 2 9 2 23 0 30 -3 6 -5 -1 -5 -18z"/>
<path d="M295 111 c-8 -21 13 -40 25 -21 7 11 14 12 37 2 24 -11 26 -10 11 1
-10 8 -18 17 -18 20 0 3 8 7 18 9 9 3 -2 4 -25 4 -27 0 -45 -6 -48 -15z"/>
<path d="M533 123 c9 -2 17 -13 17 -24 0 -10 7 -19 15 -19 8 0 15 9 15 19 0
12 8 21 23 24 12 2 -3 4 -33 4 -30 1 -47 -1 -37 -4z"/>
<path d="M630 105 c0 -23 3 -25 43 -24 30 2 34 3 14 6 -32 5 -32 26 1 28 43 3
34 15 -11 15 -43 0 -47 -2 -47 -25z"/>
<path d="M750 115 c-18 -22 -3 -35 38 -33 l37 1 -33 4 c-42 5 -37 29 7 27 17
-1 28 2 25 7 -8 14 -60 10 -74 -6z"/>
</g>
</svg>
