<?xml version="1.0" encoding="UTF-8"?>
<!DOCTYPE svg PUBLIC "-//W3C//DTD SVG 1.1//EN" "http://www.w3.org/Graphics/SVG/1.1/DTD/svg11.dtd">
<svg xmlns="http://www.w3.org/2000/svg" version="1.1" width="500px" height="500px" style="shape-rendering:geometricPrecision; text-rendering:geometricPrecision; image-rendering:optimizeQuality; fill-rule:evenodd; clip-rule:evenodd" xmlns:xlink="http://www.w3.org/1999/xlink">
<g><path style="opacity:1" fill="#fefefe" d="M -0.5,-0.5 C 166.167,-0.5 332.833,-0.5 499.5,-0.5C 499.5,166.167 499.5,332.833 499.5,499.5C 332.833,499.5 166.167,499.5 -0.5,499.5C -0.5,332.833 -0.5,166.167 -0.5,-0.5 Z"/></g>
<g><path style="opacity:1" fill="#1f1b20" d="M 146.5,221.5 C 145.833,221.5 145.5,221.833 145.5,222.5C 136.312,212.873 124.979,207.873 111.5,207.5C 111.5,211.167 111.5,214.833 111.5,218.5C 111.167,218.5 110.833,218.5 110.5,218.5C 110.5,214.167 110.5,209.833 110.5,205.5C 124.777,205.977 136.777,211.31 146.5,221.5 Z"/></g>
<g><path style="opacity:1" fill="#fbfafb" d="M 106.5,222.5 C 106.5,228.167 106.5,233.833 106.5,239.5C 99.6477,239.761 93.9811,242.427 89.5,247.5C 80.2426,260.813 81.9092,272.646 94.5,283C 97.8931,285.076 101.56,286.242 105.5,286.5C 105.5,297.167 105.5,307.833 105.5,318.5C 103.782,316.636 102.615,314.303 102,311.5C 99.2251,308.346 96.0584,307.846 92.5,310C 91.253,311.946 89.9197,313.78 88.5,315.5C 86.8333,314.833 85.1667,314.167 83.5,313.5C 82.6143,312.675 82.281,311.675 82.5,310.5C 84.6106,305.387 82.9439,302.054 77.5,300.5C 74.7154,301.059 72.3821,302.392 70.5,304.5C 68.8513,303.352 67.3513,302.019 66,300.5C 67.2072,298.038 68.3739,295.371 69.5,292.5C 68.9913,288.408 66.6579,286.408 62.5,286.5C 60.4878,286.84 58.4878,287.173 56.5,287.5C 56.4139,285.323 55.7472,283.323 54.5,281.5C 55.4669,280.016 56.8002,279.016 58.5,278.5C 62.7557,273.99 62.089,270.157 56.5,267C 54.8659,266.506 53.1992,266.34 51.5,266.5C 51.5,263.833 51.5,261.167 51.5,258.5C 59.6858,259.49 62.5192,256.157 60,248.5C 58.8904,246.963 57.3904,246.297 55.5,246.5C 54.2979,244.055 54.6312,241.722 56.5,239.5C 59.386,239.29 62.386,239.123 65.5,239C 70.7525,235.173 70.7525,231.34 65.5,227.5C 66.3956,224.931 68.0623,222.931 70.5,221.5C 73.6757,224.574 77.3423,225.241 81.5,223.5C 83.7336,220.583 84.0669,217.417 82.5,214C 83.8966,212.214 85.7299,211.048 88,210.5C 89.9348,212.174 91.7682,214.008 93.5,216C 100.698,217.823 103.698,214.99 102.5,207.5C 103.833,207.5 105.167,207.5 106.5,207.5C 106.5,212.5 106.5,217.5 106.5,222.5 Z"/></g>
<g><path style="opacity:1" fill="#fbfbfb" d="M 145.5,222.5 C 153.475,232.388 157.142,243.722 156.5,256.5C 156,266.17 152.833,274.836 147,282.5C 140.53,288.985 133.53,294.652 126,299.5C 125.79,297.942 125.29,296.609 124.5,295.5C 121.643,291.375 120.81,286.709 122,281.5C 125.343,277.99 128.843,274.657 132.5,271.5C 135.769,266.135 136.269,260.469 134,254.5C 129.11,249.712 123.943,249.379 118.5,253.5C 116.5,252.5 114.5,251.5 112.5,250.5C 111.501,239.854 111.168,229.187 111.5,218.5C 111.5,214.833 111.5,211.167 111.5,207.5C 124.979,207.873 136.312,212.873 145.5,222.5 Z"/></g>
<g><path style="opacity:1" fill="#211b23" d="M 107.5,222.5 C 107.167,222.5 106.833,222.5 106.5,222.5C 106.5,217.5 106.5,212.5 106.5,207.5C 105.167,207.5 103.833,207.5 102.5,207.5C 103.698,214.99 100.698,217.823 93.5,216C 91.7682,214.008 89.9348,212.174 88,210.5C 85.7299,211.048 83.8966,212.214 82.5,214C 84.0669,217.417 83.7336,220.583 81.5,223.5C 77.3423,225.241 73.6757,224.574 70.5,221.5C 68.0623,222.931 66.3956,224.931 65.5,227.5C 65.1667,227.5 64.8333,227.5 64.5,227.5C 63.4265,226.749 63.2599,225.749 64,224.5C 66.0165,222.316 68.1831,220.316 70.5,218.5C 79.0955,226.348 82.4288,224.515 80.5,213C 83.1924,209.985 86.5258,208.651 90.5,209C 91.5853,211.172 92.9186,213.172 94.5,215C 100.638,214.998 102.971,211.831 101.5,205.5C 103.5,205.5 105.5,205.5 107.5,205.5C 107.5,211.167 107.5,216.833 107.5,222.5 Z"/></g>
<g><path style="opacity:1" fill="#492f50" d="M 146.5,221.5 C 153.769,229.377 157.769,238.71 158.5,249.5C 157.833,251.833 157.167,254.167 156.5,256.5C 157.142,243.722 153.475,232.388 145.5,222.5C 145.5,221.833 145.833,221.5 146.5,221.5 Z"/></g>
<g><path style="opacity:1" fill="#7d85a2" d="M 214.5,227.5 C 218.351,226.191 222.351,226.191 226.5,227.5C 226.145,228.522 225.478,229.189 224.5,229.5C 221.663,227.598 218.329,226.931 214.5,227.5 Z"/></g>
<g><path style="opacity:1" fill="#747c9b" d="M 310.5,234.5 C 310.5,234.167 310.5,233.833 310.5,233.5C 310.5,231.5 310.5,229.5 310.5,227.5C 291.5,227.5 272.5,227.5 253.5,227.5C 253.5,229.5 253.5,231.5 253.5,233.5C 253.5,233.833 253.5,234.167 253.5,234.5C 252.527,232.052 252.194,229.385 252.5,226.5C 272.167,226.5 291.833,226.5 311.5,226.5C 311.806,229.385 311.473,232.052 310.5,234.5 Z"/></g>
<g><path style="opacity:1" fill="#0d1a4a" d="M 310.5,233.5 C 291.891,234.282 272.891,234.282 253.5,233.5C 253.5,231.5 253.5,229.5 253.5,227.5C 272.5,227.5 291.5,227.5 310.5,227.5C 310.5,229.5 310.5,231.5 310.5,233.5 Z"/></g>
<g><path style="opacity:1" fill="#0d1a4a" d="M 322.5,227.5 C 339.5,227.5 356.5,227.5 373.5,227.5C 373.5,229.5 373.5,231.5 373.5,233.5C 358.657,233.171 343.99,233.504 329.5,234.5C 328.596,235.209 328.263,236.209 328.5,237.5C 326.5,237.5 324.5,237.5 322.5,237.5C 322.5,234.167 322.5,230.833 322.5,227.5 Z"/></g>
<g><path style="opacity:1" fill="#192351" d="M 437.5,233.5 C 434.464,234.704 431.464,235.371 428.5,235.5C 426.708,235.634 425.042,235.301 423.5,234.5C 419.019,233.352 414.352,233.185 409.5,234C 407.509,234.374 405.842,235.207 404.5,236.5C 403.391,236.557 402.391,236.89 401.5,237.5C 397.988,238.055 394.988,237.388 392.5,235.5C 398.731,228.637 406.564,225.304 416,225.5C 424.424,225.215 431.591,227.882 437.5,233.5 Z"/></g>
<g><path style="opacity:1" fill="#485175" d="M 321.5,227.5 C 338.992,226.503 356.659,226.17 374.5,226.5C 374.5,229.167 374.5,231.833 374.5,234.5C 359.5,234.5 344.5,234.5 329.5,234.5C 343.99,233.504 358.657,233.171 373.5,233.5C 373.5,231.5 373.5,229.5 373.5,227.5C 356.5,227.5 339.5,227.5 322.5,227.5C 322.167,227.5 321.833,227.5 321.5,227.5 Z"/></g>
<g><path style="opacity:1" fill="#8389a0" d="M 423.5,234.5 C 417.013,234.152 410.68,234.818 404.5,236.5C 405.842,235.207 407.509,234.374 409.5,234C 414.352,233.185 419.019,233.352 423.5,234.5 Z"/></g>
<g><path style="opacity:1" fill="#a6a7b6" d="M 329.5,234.5 C 344.5,234.5 359.5,234.5 374.5,234.5C 360.01,235.496 345.343,235.829 330.5,235.5C 330.5,243.167 330.5,250.833 330.5,258.5C 343.677,258.171 356.677,258.505 369.5,259.5C 355.99,259.829 342.656,259.496 329.5,258.5C 329.5,250.5 329.5,242.5 329.5,234.5 Z"/></g>
<g><path style="opacity:1" fill="#555873" d="M 167.5,227.5 C 169.948,226.527 172.615,226.194 175.5,226.5C 175.5,238.833 175.5,251.167 175.5,263.5C 174.521,260.375 174.187,257.042 174.5,253.5C 174.5,244.833 174.5,236.167 174.5,227.5C 172.167,227.5 169.833,227.5 167.5,227.5 Z"/></g>
<g><path style="opacity:1" fill="#1a244a" d="M 214.5,227.5 C 218.329,226.931 221.663,227.598 224.5,229.5C 219.539,233.126 214.872,237.126 210.5,241.5C 210.189,240.522 209.522,239.855 208.5,239.5C 205.725,239.079 203.058,239.746 200.5,241.5C 204.86,236.473 209.527,231.806 214.5,227.5 Z"/></g>
<g><path style="opacity:1" fill="#46284e" d="M 64.5,227.5 C 64.8333,227.5 65.1667,227.5 65.5,227.5C 70.7525,231.34 70.7525,235.173 65.5,239C 62.386,239.123 59.386,239.29 56.5,239.5C 54.6312,241.722 54.2979,244.055 55.5,246.5C 55.5,246.833 55.5,247.167 55.5,247.5C 53.7483,247.582 52.7483,246.749 52.5,245C 53.2064,242.38 54.2064,239.88 55.5,237.5C 58.7499,237.192 62.0833,237.025 65.5,237C 67.3249,235.534 67.8249,233.701 67,231.5C 65.5187,230.529 64.6854,229.196 64.5,227.5 Z"/></g>
<g><path style="opacity:1" fill="#21243f" d="M 392.5,235.5 C 394.988,237.388 397.988,238.055 401.5,237.5C 398.528,239.641 396.028,242.308 394,245.5C 392.769,249.704 391.269,253.704 389.5,257.5C 387.544,259.148 385.211,259.815 382.5,259.5C 382.5,262.167 382.5,264.833 382.5,267.5C 380.287,258.354 381.787,249.687 387,241.5C 388.617,239.237 390.45,237.237 392.5,235.5 Z"/></g>
<g><path style="opacity:1" fill="#1f2744" d="M 437.5,233.5 C 443.343,236.832 447.009,241.832 448.5,248.5C 445.5,248.5 442.5,248.5 439.5,248.5C 439.657,247.127 439.49,245.793 439,244.5C 435.897,240.886 432.397,237.886 428.5,235.5C 431.464,235.371 434.464,234.704 437.5,233.5 Z"/></g>
<g><path style="opacity:1" fill="#40204a" d="M 106.5,222.5 C 106.833,222.5 107.167,222.5 107.5,222.5C 107.5,228.833 107.5,235.167 107.5,241.5C 100.794,241.354 95.127,243.688 90.5,248.5C 90.5,247.833 90.1667,247.5 89.5,247.5C 93.9811,242.427 99.6477,239.761 106.5,239.5C 106.5,233.833 106.5,228.167 106.5,222.5 Z"/></g>
<g><path style="opacity:1" fill="#121935" d="M 167.5,227.5 C 169.833,227.5 172.167,227.5 174.5,227.5C 174.5,236.167 174.5,244.833 174.5,253.5C 172.167,253.5 169.833,253.5 167.5,253.5C 167.5,244.833 167.5,236.167 167.5,227.5 Z"/></g>
<g><path style="opacity:1" fill="#363856" d="M 253.5,234.5 C 253.5,234.167 253.5,233.833 253.5,233.5C 272.891,234.282 291.891,234.282 310.5,233.5C 310.5,233.833 310.5,234.167 310.5,234.5C 302.316,234.174 294.316,234.508 286.5,235.5C 285.509,242.313 285.175,249.313 285.5,256.5C 283.599,255.069 281.432,254.069 279,253.5C 278.501,257.821 278.334,262.154 278.5,266.5C 278.5,270.833 278.5,275.167 278.5,279.5C 278.5,285.833 278.5,292.167 278.5,298.5C 277.503,277.34 277.169,256.007 277.5,234.5C 269.5,234.5 261.5,234.5 253.5,234.5 Z"/></g>
<g><path style="opacity:1" fill="#20253a" d="M 210.5,241.5 C 207.167,245.5 203.5,249.167 199.5,252.5C 198.666,251.252 197.333,250.585 195.5,250.5C 194.167,250.667 192.833,250.833 191.5,251C 189.886,253.127 187.886,254.627 185.5,255.5C 189.871,250.127 194.871,245.461 200.5,241.5C 203.058,239.746 205.725,239.079 208.5,239.5C 209.522,239.855 210.189,240.522 210.5,241.5 Z"/></g>
<g><path style="opacity:1" fill="#20243d" d="M 321.5,227.5 C 321.833,227.5 322.167,227.5 322.5,227.5C 322.5,230.833 322.5,234.167 322.5,237.5C 324.5,237.5 326.5,237.5 328.5,237.5C 328.263,236.209 328.596,235.209 329.5,234.5C 329.5,242.5 329.5,250.5 329.5,258.5C 328.698,257.048 328.198,255.382 328,253.5C 326.301,254.406 324.467,254.739 322.5,254.5C 322.5,256.833 322.5,259.167 322.5,261.5C 322.167,261.5 321.833,261.5 321.5,261.5C 321.5,250.167 321.5,238.833 321.5,227.5 Z"/></g>
<g><path style="opacity:1" fill="#fbfafc" d="M 112.5,252.5 C 113.973,253.072 115.307,253.905 116.5,255C 114.496,257.841 113.996,261.007 115,264.5C 119.687,267.704 122.52,266.37 123.5,260.5C 123.03,258.226 122.03,256.226 120.5,254.5C 125.265,251.395 129.432,252.062 133,256.5C 133.966,261.39 133.466,266.057 131.5,270.5C 127.752,273.137 124.252,276.137 121,279.5C 119.633,283.7 119.133,288.033 119.5,292.5C 117.167,292.5 114.833,292.5 112.5,292.5C 112.5,279.167 112.5,265.833 112.5,252.5 Z"/></g>
<g><path style="opacity:1" fill="#562764" d="M 110.5,218.5 C 110.833,218.5 111.167,218.5 111.5,218.5C 111.168,229.187 111.501,239.854 112.5,250.5C 114.5,251.5 116.5,252.5 118.5,253.5C 123.943,249.379 129.11,249.712 134,254.5C 136.269,260.469 135.769,266.135 132.5,271.5C 131.833,271.5 131.5,271.167 131.5,270.5C 133.466,266.057 133.966,261.39 133,256.5C 129.432,252.062 125.265,251.395 120.5,254.5C 122.03,256.226 123.03,258.226 123.5,260.5C 122.52,266.37 119.687,267.704 115,264.5C 113.996,261.007 114.496,257.841 116.5,255C 115.307,253.905 113.973,253.072 112.5,252.5C 111.518,255.962 111.185,259.629 111.5,263.5C 111.167,263.5 110.833,263.5 110.5,263.5C 110.5,248.5 110.5,233.5 110.5,218.5 Z"/></g>
<g><path style="opacity:1" fill="#efe9f0" d="M 117.5,256.5 C 120.121,256.477 121.455,257.811 121.5,260.5C 119.64,265.669 117.64,265.669 115.5,260.5C 115.752,258.927 116.418,257.594 117.5,256.5 Z"/></g>
<g><path style="opacity:1" fill="#5230bd" d="M 255.5,252.5 C 255.649,253.552 255.483,254.552 255,255.5C 249.996,261.336 244.829,267.003 239.5,272.5C 238.402,271.399 238.235,270.066 239,268.5C 243.688,263.313 248.188,257.98 252.5,252.5C 253.527,251.209 254.527,251.209 255.5,252.5 Z"/></g>
<g><path style="opacity:1" fill="#34224e" d="M 199.5,252.5 C 197.978,253.191 196.978,254.358 196.5,256C 198.07,258.059 199.403,260.226 200.5,262.5C 198.721,264.344 196.388,265.01 193.5,264.5C 192.288,263.77 191.288,262.77 190.5,261.5C 187.814,263.856 185.147,266.189 182.5,268.5C 182.116,266.707 180.95,265.707 179,265.5C 174.974,266.384 171.141,266.718 167.5,266.5C 167.5,262.167 167.5,257.833 167.5,253.5C 169.833,253.5 172.167,253.5 174.5,253.5C 174.187,257.042 174.521,260.375 175.5,263.5C 178.724,260.863 182.058,258.197 185.5,255.5C 187.886,254.627 189.886,253.127 191.5,251C 192.833,250.833 194.167,250.667 195.5,250.5C 197.333,250.585 198.666,251.252 199.5,252.5 Z"/></g>
<g><path style="opacity:1" fill="#341f4f" d="M 329.5,258.5 C 342.656,259.496 355.99,259.829 369.5,259.5C 369.5,261.833 369.5,264.167 369.5,266.5C 356.167,266.5 342.833,266.5 329.5,266.5C 327.208,266.244 325.041,266.577 323,267.5C 322.505,265.527 322.338,263.527 322.5,261.5C 322.5,259.167 322.5,256.833 322.5,254.5C 324.467,254.739 326.301,254.406 328,253.5C 328.198,255.382 328.698,257.048 329.5,258.5 Z"/></g>
<g><path style="opacity:1" fill="#341f4f" d="M 285.5,256.5 C 285.5,260.167 285.5,263.833 285.5,267.5C 283.283,266.631 280.95,266.298 278.5,266.5C 278.334,262.154 278.501,257.821 279,253.5C 281.432,254.069 283.599,255.069 285.5,256.5 Z"/></g>
<g><path style="opacity:1" fill="#673476" d="M 55.5,246.5 C 57.3904,246.297 58.8904,246.963 60,248.5C 62.5192,256.157 59.6858,259.49 51.5,258.5C 51.5,261.167 51.5,263.833 51.5,266.5C 53.1992,266.34 54.8659,266.506 56.5,267C 62.089,270.157 62.7557,273.99 58.5,278.5C 58.5,277.833 58.1667,277.5 57.5,277.5C 60.3472,274.365 60.0139,271.532 56.5,269C 54.1902,268.503 51.8568,268.337 49.5,268.5C 49.5,264.833 49.5,261.167 49.5,257.5C 55.8309,258.971 58.9976,256.638 59,250.5C 57.8549,249.364 56.6883,248.364 55.5,247.5C 55.5,247.167 55.5,246.833 55.5,246.5 Z"/></g>
<g><path style="opacity:1" fill="#a63dc9" d="M 258.5,255.5 C 259.573,256.251 259.74,257.251 259,258.5C 254.673,264.823 249.673,270.49 244,275.5C 242.699,275.361 241.866,274.695 241.5,273.5C 243.363,271.295 245.697,269.961 248.5,269.5C 248.351,268.448 248.517,267.448 249,266.5C 251.966,262.698 255.132,259.031 258.5,255.5 Z"/></g>
<g><path style="opacity:1" fill="#baa8c5" d="M 329.5,266.5 C 342.833,266.5 356.167,266.5 369.5,266.5C 356.677,267.495 343.677,267.829 330.5,267.5C 330.5,275.167 330.5,282.833 330.5,290.5C 345.343,290.171 360.01,290.504 374.5,291.5C 359.324,291.829 344.324,291.496 329.5,290.5C 329.5,282.5 329.5,274.5 329.5,266.5 Z"/></g>
<g><path style="opacity:1" fill="#462162" d="M 182.5,268.5 C 180.167,270.5 177.833,272.5 175.5,274.5C 174.833,274.5 174.5,274.833 174.5,275.5C 172.109,275.999 169.776,276.332 167.5,276.5C 167.5,273.167 167.5,269.833 167.5,266.5C 171.141,266.718 174.974,266.384 179,265.5C 180.95,265.707 182.116,266.707 182.5,268.5 Z"/></g>
<g><path style="opacity:1" fill="#44275f" d="M 389.5,257.5 C 389.21,263.322 389.877,268.988 391.5,274.5C 390.635,272.323 388.968,271.323 386.5,271.5C 384.97,271.64 383.97,272.307 383.5,273.5C 382.539,271.735 382.205,269.735 382.5,267.5C 382.5,264.833 382.5,262.167 382.5,259.5C 385.211,259.815 387.544,259.148 389.5,257.5 Z"/></g>
<g><path style="opacity:1" fill="#7f2bc1" d="M 255.5,252.5 C 256.833,253.167 257.833,254.167 258.5,255.5C 255.132,259.031 251.966,262.698 249,266.5C 248.517,267.448 248.351,268.448 248.5,269.5C 245.697,269.961 243.363,271.295 241.5,273.5C 240.833,273.167 240.167,272.833 239.5,272.5C 244.829,267.003 249.996,261.336 255,255.5C 255.483,254.552 255.649,253.552 255.5,252.5 Z"/></g>
<g><path style="opacity:1" fill="#562e71" d="M 321.5,261.5 C 321.833,261.5 322.167,261.5 322.5,261.5C 322.338,263.527 322.505,265.527 323,267.5C 325.041,266.577 327.208,266.244 329.5,266.5C 329.5,274.5 329.5,282.5 329.5,290.5C 328.596,289.791 328.263,288.791 328.5,287.5C 328.5,283.167 328.5,278.833 328.5,274.5C 326.5,274.5 324.5,274.5 322.5,274.5C 322.5,277.167 322.5,279.833 322.5,282.5C 322.167,282.5 321.833,282.5 321.5,282.5C 321.5,275.5 321.5,268.5 321.5,261.5 Z"/></g>
<g><path style="opacity:1" fill="#512a6c" d="M 200.5,262.5 C 204.899,266.568 208.565,271.235 211.5,276.5C 208.828,278.802 205.828,279.135 202.5,277.5C 199.085,273.424 196.085,269.091 193.5,264.5C 196.388,265.01 198.721,264.344 200.5,262.5 Z"/></g>
<g><path style="opacity:1" fill="#4d236a" d="M 278.5,266.5 C 280.95,266.298 283.283,266.631 285.5,267.5C 285.5,271.167 285.5,274.833 285.5,278.5C 283.283,279.369 280.95,279.702 278.5,279.5C 278.5,275.167 278.5,270.833 278.5,266.5 Z"/></g>
<g><path style="opacity:1" fill="#854896" d="M 89.5,247.5 C 90.1667,247.5 90.5,247.833 90.5,248.5C 82.9079,260.409 84.2413,271.242 94.5,281C 98.7146,283.237 103.048,284.737 107.5,285.5C 106.833,296.5 106.167,307.5 105.5,318.5C 105.5,307.833 105.5,297.167 105.5,286.5C 101.56,286.242 97.8931,285.076 94.5,283C 81.9092,272.646 80.2426,260.813 89.5,247.5 Z"/></g>
<g><path style="opacity:1" fill="#bd9ac7" d="M 112.5,252.5 C 112.5,265.833 112.5,279.167 112.5,292.5C 114.833,292.5 117.167,292.5 119.5,292.5C 117.052,293.473 114.385,293.806 111.5,293.5C 111.5,283.5 111.5,273.5 111.5,263.5C 111.185,259.629 111.518,255.962 112.5,252.5 Z"/></g>
<g><path style="opacity:1" fill="#87459a" d="M 158.5,249.5 C 159.222,272.26 149.389,288.594 129,298.5C 128.827,304.016 128.327,309.349 127.5,314.5C 127.813,310.958 127.479,307.625 126.5,304.5C 126.715,302.821 126.048,301.821 124.5,301.5C 124.5,299.5 124.5,297.5 124.5,295.5C 125.29,296.609 125.79,297.942 126,299.5C 133.53,294.652 140.53,288.985 147,282.5C 152.833,274.836 156,266.17 156.5,256.5C 157.167,254.167 157.833,251.833 158.5,249.5 Z"/></g>
<g><path style="opacity:1" fill="#642482" d="M 174.5,275.5 C 174.5,279.833 174.5,284.167 174.5,288.5C 172.167,288.5 169.833,288.5 167.5,288.5C 167.5,284.5 167.5,280.5 167.5,276.5C 169.776,276.332 172.109,275.999 174.5,275.5 Z"/></g>
<g><path style="opacity:1" fill="#60237e" d="M 328.5,287.5 C 326.5,287.5 324.5,287.5 322.5,287.5C 322.5,285.833 322.5,284.167 322.5,282.5C 322.5,279.833 322.5,277.167 322.5,274.5C 324.5,274.5 326.5,274.5 328.5,274.5C 328.5,278.833 328.5,283.167 328.5,287.5 Z"/></g>
<g><path style="opacity:1" fill="#6f288e" d="M 285.5,278.5 C 285.5,285.167 285.5,291.833 285.5,298.5C 283.167,298.5 280.833,298.5 278.5,298.5C 278.5,292.167 278.5,285.833 278.5,279.5C 280.95,279.702 283.283,279.369 285.5,278.5 Z"/></g>
<g><path style="opacity:1" fill="#682d85" d="M 391.5,274.5 C 393.982,280.656 397.982,285.656 403.5,289.5C 400.319,289.742 397.319,289.742 394.5,289.5C 393.702,289.957 393.369,290.624 393.5,291.5C 388.109,286.724 384.775,280.724 383.5,273.5C 383.97,272.307 384.97,271.64 386.5,271.5C 388.968,271.323 390.635,272.323 391.5,274.5 Z"/></g>
<g><path style="opacity:1" fill="#753093" d="M 211.5,276.5 C 217.064,283.282 222.398,290.282 227.5,297.5C 224.713,298.477 221.713,298.81 218.5,298.5C 213.198,291.524 207.864,284.524 202.5,277.5C 205.828,279.135 208.828,278.802 211.5,276.5 Z"/></g>
<g><path style="opacity:1" fill="#a386b4" d="M 286.5,235.5 C 286.5,256.833 286.5,278.167 286.5,299.5C 283.615,299.806 280.948,299.473 278.5,298.5C 280.833,298.5 283.167,298.5 285.5,298.5C 285.5,291.833 285.5,285.167 285.5,278.5C 285.5,274.833 285.5,271.167 285.5,267.5C 285.5,263.833 285.5,260.167 285.5,256.5C 285.175,249.313 285.509,242.313 286.5,235.5 Z"/></g>
<g><path style="opacity:1" fill="#763692" d="M 435.5,294.5 C 431.627,292.57 427.294,291.903 422.5,292.5C 422.5,292.167 422.5,291.833 422.5,291.5C 430.523,289.659 436.523,285.159 440.5,278C 443.146,277.503 445.813,277.336 448.5,277.5C 446.337,284.825 442.004,290.492 435.5,294.5 Z"/></g>
<g><path style="opacity:1" fill="#b185c2" d="M 404.5,289.5 C 410.346,291.155 416.346,291.822 422.5,291.5C 422.5,291.833 422.5,292.167 422.5,292.5C 418.154,292.666 413.821,292.499 409.5,292C 407.509,291.626 405.842,290.793 404.5,289.5 Z"/></g>
<g><path style="opacity:1" fill="#782a8f" d="M 110.5,263.5 C 110.833,263.5 111.167,263.5 111.5,263.5C 111.5,273.5 111.5,283.5 111.5,293.5C 114.385,293.806 117.052,293.473 119.5,292.5C 119.133,288.033 119.633,283.7 121,279.5C 124.252,276.137 127.752,273.137 131.5,270.5C 131.5,271.167 131.833,271.5 132.5,271.5C 128.843,274.657 125.343,277.99 122,281.5C 120.81,286.709 121.643,291.375 124.5,295.5C 124.167,295.5 123.833,295.5 123.5,295.5C 123.167,295.5 122.833,295.5 122.5,295.5C 118.833,294.167 115.167,294.167 111.5,295.5C 111.167,295.5 110.833,295.5 110.5,295.5C 110.5,284.833 110.5,274.167 110.5,263.5 Z"/></g>
<g><path style="opacity:1" fill="#7f309e" d="M 403.5,289.5 C 403.833,289.5 404.167,289.5 404.5,289.5C 405.842,290.793 407.509,291.626 409.5,292C 413.821,292.499 418.154,292.666 422.5,292.5C 427.294,291.903 431.627,292.57 435.5,294.5C 426.413,299.17 416.746,300.67 406.5,299C 401.196,298.02 396.863,295.52 393.5,291.5C 393.369,290.624 393.702,289.957 394.5,289.5C 397.319,289.742 400.319,289.742 403.5,289.5 Z"/></g>
<g><path style="opacity:1" fill="#9244a9" d="M 57.5,277.5 C 58.1667,277.5 58.5,277.833 58.5,278.5C 56.8002,279.016 55.4669,280.016 54.5,281.5C 55.7472,283.323 56.4139,285.323 56.5,287.5C 58.4878,287.173 60.4878,286.84 62.5,286.5C 66.6579,286.408 68.9913,288.408 69.5,292.5C 68.3739,295.371 67.2072,298.038 66,300.5C 67.3513,302.019 68.8513,303.352 70.5,304.5C 72.3821,302.392 74.7154,301.059 77.5,300.5C 82.9439,302.054 84.6106,305.387 82.5,310.5C 82.5,309.833 82.1667,309.5 81.5,309.5C 82.3286,304.499 80.3286,302.332 75.5,303C 73.9825,304.685 72.3159,306.185 70.5,307.5C 66.3417,305.226 64.1751,301.893 64,297.5C 67.8106,295.117 68.3106,292.283 65.5,289C 62.0833,288.975 58.7499,288.808 55.5,288.5C 54.5979,285.96 53.5979,283.46 52.5,281C 53.4304,278.862 55.097,277.695 57.5,277.5 Z"/></g>
<g><path style="opacity:1" fill="#7d289d" d="M 167.5,288.5 C 169.833,288.5 172.167,288.5 174.5,288.5C 174.5,291.833 174.5,295.167 174.5,298.5C 172.167,298.5 169.833,298.5 167.5,298.5C 167.5,295.167 167.5,291.833 167.5,288.5 Z"/></g>
<g><path style="opacity:1" fill="#9d66b3" d="M 175.5,274.5 C 175.5,282.833 175.5,291.167 175.5,299.5C 172.615,299.806 169.948,299.473 167.5,298.5C 169.833,298.5 172.167,298.5 174.5,298.5C 174.5,295.167 174.5,291.833 174.5,288.5C 174.5,284.167 174.5,279.833 174.5,275.5C 174.5,274.833 174.833,274.5 175.5,274.5 Z"/></g>
<g><path style="opacity:1" fill="#8537a3" d="M 321.5,282.5 C 321.833,282.5 322.167,282.5 322.5,282.5C 322.5,284.167 322.5,285.833 322.5,287.5C 324.5,287.5 326.5,287.5 328.5,287.5C 328.263,288.791 328.596,289.791 329.5,290.5C 344.324,291.496 359.324,291.829 374.5,291.5C 374.5,294.167 374.5,296.833 374.5,299.5C 356.833,299.5 339.167,299.5 321.5,299.5C 321.5,293.833 321.5,288.167 321.5,282.5 Z"/></g>
<g><path style="opacity:1" fill="#c395d3" d="M 227.5,297.5 C 228.043,297.56 228.376,297.893 228.5,298.5C 225.02,299.806 221.687,299.806 218.5,298.5C 221.713,298.81 224.713,298.477 227.5,297.5 Z"/></g>
<g><path style="opacity:1" fill="#c598d3" d="M 122.5,295.5 C 122.833,295.5 123.167,295.5 123.5,295.5C 123.5,297.167 123.5,298.833 123.5,300.5C 119.5,300.5 115.5,300.5 111.5,300.5C 111.5,298.833 111.5,297.167 111.5,295.5C 115.167,294.167 118.833,294.167 122.5,295.5 Z"/></g>
<g><path style="opacity:1" fill="#cea1db" d="M 124.5,301.5 C 126.048,301.821 126.715,302.821 126.5,304.5C 121.944,306.442 116.944,307.108 111.5,306.5C 111.5,304.833 111.5,303.167 111.5,301.5C 115.833,301.5 120.167,301.5 124.5,301.5 Z"/></g>
<g><path style="opacity:1" fill="#fefefe" d="M 112.5,302.5 C 116.833,302.5 121.167,302.5 125.5,302.5C 125.5,303.5 125.5,304.5 125.5,305.5C 121.167,305.5 116.833,305.5 112.5,305.5C 112.5,304.5 112.5,303.5 112.5,302.5 Z"/></g>
<g><path style="opacity:1" fill="#9c32bb" d="M 110.5,295.5 C 110.833,295.5 111.167,295.5 111.5,295.5C 111.5,297.167 111.5,298.833 111.5,300.5C 115.5,300.5 119.5,300.5 123.5,300.5C 123.5,298.833 123.5,297.167 123.5,295.5C 123.833,295.5 124.167,295.5 124.5,295.5C 124.5,297.5 124.5,299.5 124.5,301.5C 120.167,301.5 115.833,301.5 111.5,301.5C 111.5,303.167 111.5,304.833 111.5,306.5C 116.944,307.108 121.944,306.442 126.5,304.5C 127.479,307.625 127.813,310.958 127.5,314.5C 127.152,317.019 125.819,318.853 123.5,320C 119.179,320.499 114.846,320.666 110.5,320.5C 110.5,312.167 110.5,303.833 110.5,295.5 Z"/></g>
<g><path style="opacity:1" fill="#d2a4e0" d="M 111.5,307.5 C 116.5,307.5 121.5,307.5 126.5,307.5C 126.5,309.167 126.5,310.833 126.5,312.5C 121.5,312.5 116.5,312.5 111.5,312.5C 111.5,310.833 111.5,309.167 111.5,307.5 Z"/></g>
<g><path style="opacity:1" fill="#fefefe" d="M 112.5,308.5 C 116.833,308.5 121.167,308.5 125.5,308.5C 125.5,309.5 125.5,310.5 125.5,311.5C 121.167,311.5 116.833,311.5 112.5,311.5C 112.5,310.5 112.5,309.5 112.5,308.5 Z"/></g>
<g><path style="opacity:1" fill="#fefefe" d="M 122.5,295.5 C 122.5,296.833 122.5,298.167 122.5,299.5C 119.167,299.5 115.833,299.5 112.5,299.5C 112.5,298.167 112.5,296.833 112.5,295.5C 115.833,295.5 119.167,295.5 122.5,295.5 Z"/></g>
<g><path style="opacity:1" fill="#d5a6e3" d="M 125.5,314.5 C 121.167,314.5 116.833,314.5 112.5,314.5C 112.5,315.833 112.5,317.167 112.5,318.5C 111.549,317.081 111.216,315.415 111.5,313.5C 116.363,313.181 121.03,313.514 125.5,314.5 Z"/></g>
<g><path style="opacity:1" fill="#fdfcfe" d="M 125.5,314.5 C 125.426,316.411 124.426,317.578 122.5,318C 119.183,318.498 115.85,318.665 112.5,318.5C 112.5,317.167 112.5,315.833 112.5,314.5C 116.833,314.5 121.167,314.5 125.5,314.5 Z"/></g>
<g><path style="opacity:1" fill="#a23fc0" d="M 107.5,285.5 C 107.5,297.167 107.5,308.833 107.5,320.5C 105.5,320.5 103.5,320.5 101.5,320.5C 102.971,314.169 100.638,311.002 94.5,311C 92.9975,313.544 91.1642,315.71 89,317.5C 86.3805,316.794 83.8805,315.794 81.5,314.5C 80.3336,312.833 80.3336,311.166 81.5,309.5C 82.1667,309.5 82.5,309.833 82.5,310.5C 82.281,311.675 82.6143,312.675 83.5,313.5C 85.1667,314.167 86.8333,314.833 88.5,315.5C 89.9197,313.78 91.253,311.946 92.5,310C 96.0584,307.846 99.2251,308.346 102,311.5C 102.615,314.303 103.782,316.636 105.5,318.5C 106.167,307.5 106.833,296.5 107.5,285.5 Z"/></g>
</svg>
