<?xml version="1.0" encoding="UTF-8"?>
<!DOCTYPE svg PUBLIC "-//W3C//DTD SVG 1.1//EN" "http://www.w3.org/Graphics/SVG/1.1/DTD/svg11.dtd">
<svg xmlns="http://www.w3.org/2000/svg" version="1.1" width="500px" height="500px" style="shape-rendering:geometricPrecision; text-rendering:geometricPrecision; image-rendering:optimizeQuality; fill-rule:evenodd; clip-rule:evenodd" xmlns:xlink="http://www.w3.org/1999/xlink">
<g><path style="opacity:0.698" fill="#1b1770" d="M 189.5,239.5 C 188.883,239.389 188.383,239.056 188,238.5C 187.333,235.833 186.667,233.167 186,230.5C 185.768,231.737 185.268,232.737 184.5,233.5C 175.92,199.895 154.586,181.562 120.5,178.5C 120.179,176.952 119.179,176.285 117.5,176.5C 117.483,178.565 117.15,180.565 116.5,182.5C 115.897,180.374 115.897,178.041 116.5,175.5C 149.143,176.322 171.977,191.656 185,221.5C 186.817,227.435 188.317,233.435 189.5,239.5 Z"/></g>
<g><path style="opacity:0.912" fill="#2e1d7a" d="M 113.5,176.5 C 114.477,193.367 114.81,210.201 114.5,227C 88.6087,230.952 78.1087,245.785 83,271.5C 88.3281,283.699 97.4947,290.033 110.5,290.5C 110.38,291.586 109.713,292.253 108.5,292.5C 106.527,291.669 104.527,291.502 102.5,292C 104.611,292.845 106.611,293.678 108.5,294.5C 89.1026,291.264 78.4359,279.764 76.5,260C 78.8089,239.694 89.9756,227.86 110,224.5C 110.258,209.557 110.425,194.891 110.5,180.5C 111.15,180.804 111.817,181.137 112.5,181.5C 113.452,179.955 113.785,178.288 113.5,176.5 Z"/></g>
<g><path style="opacity:0.808" fill="#181578" d="M 113.5,176.5 C 113.785,178.288 113.452,179.955 112.5,181.5C 111.817,181.137 111.15,180.804 110.5,180.5C 109.788,179.261 108.788,178.761 107.5,179C 107.761,190.416 102.428,194.749 91.5,192C 89.2029,189.226 87.0363,186.392 85,183.5C 82.0038,184.551 79.1704,185.884 76.5,187.5C 80.3124,195.556 78.8124,201.556 72,205.5C 70,204.167 68,204.167 66,205.5C 63.3557,203.69 60.8557,201.69 58.5,199.5C 56.1831,201.316 54.0165,203.316 52,205.5C 51.4153,206.998 51.9153,207.998 53.5,208.5C 52.7081,210.745 51.3747,211.078 49.5,209.5C 47.6231,208.341 47.1231,206.674 48,204.5C 51.3488,201.089 54.6821,197.756 58,194.5C 61.1416,197.638 64.8083,199.972 69,201.5C 72.1837,200.158 74.0171,197.824 74.5,194.5C 72.8155,191.389 72.3155,188.056 73,184.5C 77.6142,182.016 82.4475,180.016 87.5,178.5C 89.3605,180.888 90.6939,183.554 91.5,186.5C 95.5178,190.584 99.1845,190.25 102.5,185.5C 103.487,182.232 103.82,178.898 103.5,175.5C 105.262,175.643 106.929,175.309 108.5,174.5C 110.336,175.028 112.003,175.694 113.5,176.5 Z"/></g>
<g><path style="opacity:0.714" fill="#301a7c" d="M 53.5,208.5 C 59.6811,215.58 58.6811,221.413 50.5,226C 46.8595,226.644 43.3595,226.144 40,224.5C 37.6417,227.393 36.1417,230.726 35.5,234.5C 41.9697,235.255 45.6364,238.922 46.5,245.5C 43.9059,252.304 38.9059,255.304 31.5,254.5C 31.5,258.167 31.5,261.833 31.5,265.5C 39.2562,263.925 44.2562,266.925 46.5,274.5C 45.846,276.115 45.346,277.782 45,279.5C 42.0745,282.37 38.9078,284.87 35.5,287C 36.5979,289.46 37.5979,291.96 38.5,294.5C 40.4012,295.231 42.4012,295.231 44.5,294.5C 47.8934,294.062 50.8934,294.895 53.5,297C 52.552,297.483 51.552,297.649 50.5,297.5C 46.6521,297.24 42.9855,297.906 39.5,299.5C 37.9707,299.471 36.804,298.804 36,297.5C 34.2189,293.605 32.7189,289.605 31.5,285.5C 31.8333,284.833 32.1667,284.167 32.5,283.5C 35.3568,282.804 37.8568,281.471 40,279.5C 42.1539,275.942 41.6539,272.775 38.5,270C 34.9137,268.892 31.247,268.392 27.5,268.5C 27.5,262.833 27.5,257.167 27.5,251.5C 32.0321,251.926 36.1988,250.926 40,248.5C 42.1539,244.942 41.6539,241.775 38.5,239C 35.4446,238.481 33.1112,236.981 31.5,234.5C 32.9925,229.183 35.1592,224.183 38,219.5C 40.6783,220.922 43.5117,221.922 46.5,222.5C 50.4541,221.879 52.7874,219.546 53.5,215.5C 52.5329,213.21 51.1996,211.21 49.5,209.5C 51.3747,211.078 52.7081,210.745 53.5,208.5 Z"/></g>
<g><path style="opacity:0.133" fill="#362d7d" d="M 371.5,237.5 C 357.167,237.5 342.833,237.5 328.5,237.5C 326.938,241.652 326.272,245.985 326.5,250.5C 325.355,246.689 325.188,242.689 326,238.5C 327.434,236.864 329.267,235.864 331.5,235.5C 344.961,236.15 358.295,236.816 371.5,237.5 Z"/></g>
<g><path style="opacity:0.286" fill="#372982" d="M 227.5,254.5 C 226.509,247.687 226.175,240.687 226.5,233.5C 219.701,230.692 215.201,232.692 213,239.5C 212.501,244.823 212.334,250.156 212.5,255.5C 212.5,257.5 212.5,259.5 212.5,261.5C 211.833,261.167 211.167,260.833 210.5,260.5C 211.233,251.18 211.9,241.847 212.5,232.5C 217.182,231.297 221.849,231.297 226.5,232.5C 227.497,239.803 227.831,247.137 227.5,254.5 Z"/></g>
<g><path style="opacity:0.859" fill="#331d8e" d="M 371.5,237.5 C 374.368,237.085 376.535,238.085 378,240.5C 378.238,244.848 377.905,249.181 377,253.5C 371.105,254.365 365.272,254.698 359.5,254.5C 358.833,258.5 358.167,262.5 357.5,266.5C 357.334,262.154 357.501,257.821 358,253.5C 358.383,252.944 358.883,252.611 359.5,252.5C 364.833,252.5 370.167,252.5 375.5,252.5C 376.08,248.19 376.414,243.857 376.5,239.5C 360.862,238.563 345.195,238.229 329.5,238.5C 328.833,240.833 328.167,243.167 327.5,245.5C 327.261,247.467 327.594,249.301 328.5,251C 332.167,251.333 335.833,251.667 339.5,252C 340.416,252.278 341.082,252.778 341.5,253.5C 341.5,254.833 340.833,255.5 339.5,255.5C 336.057,253.939 332.39,253.106 328.5,253C 327.244,252.583 326.577,251.75 326.5,250.5C 326.272,245.985 326.938,241.652 328.5,237.5C 342.833,237.5 357.167,237.5 371.5,237.5 Z"/></g>
<g><path style="opacity:0.231" fill="#322a85" d="M 428.5,239.5 C 413.882,238.533 399.215,238.2 384.5,238.5C 386.792,237.534 389.292,236.867 392,236.5C 403.811,237.282 415.645,237.782 427.5,238C 428.056,238.383 428.389,238.883 428.5,239.5 Z"/></g>
<g><path style="opacity:0.816" fill="#302482" d="M 467.5,236.5 C 474.834,237.834 480.167,241.834 483.5,248.5C 481.427,246.42 479.093,244.754 476.5,243.5C 474.001,240.429 471.001,238.096 467.5,236.5 Z"/></g>
<g><path style="opacity:1" fill="#3824b4" d="M 359.5,252.5 C 358.756,249.05 360.09,247.384 363.5,247.5C 363.5,248.833 363.5,250.167 363.5,251.5C 366.572,251.817 369.572,251.484 372.5,250.5C 371.332,248.783 369.665,248.116 367.5,248.5C 367.5,247.5 367.5,246.5 367.5,245.5C 369.604,245.799 371.604,245.466 373.5,244.5C 372.833,244.167 372.167,243.833 371.5,243.5C 366.118,243.06 360.785,243.727 355.5,245.5C 349.546,244.239 343.546,242.906 337.5,241.5C 335.889,242.32 335.222,243.654 335.5,245.5C 332.833,245.5 330.167,245.5 327.5,245.5C 328.167,243.167 328.833,240.833 329.5,238.5C 345.195,238.229 360.862,238.563 376.5,239.5C 376.414,243.857 376.08,248.19 375.5,252.5C 370.167,252.5 364.833,252.5 359.5,252.5 Z"/></g>
<g><path style="opacity:1" fill="#3f24b9" d="M 466.5,235.5 C 467.167,235.5 467.5,235.833 467.5,236.5C 471.001,238.096 474.001,240.429 476.5,243.5C 476.389,244.117 476.056,244.617 475.5,245C 471.789,245.175 468.122,245.675 464.5,246.5C 475.602,252.427 475.102,253.761 463,250.5C 458.558,252.227 454.058,252.561 449.5,251.5C 447.186,252.123 447.519,252.456 450.5,252.5C 450.769,254.429 450.269,256.095 449,257.5C 446.869,256.385 445.035,255.052 443.5,253.5C 445.955,245.542 451.288,241.042 459.5,240C 462.2,238.989 464.533,237.489 466.5,235.5 Z"/></g>
<g><path style="opacity:0.747" fill="#311d83" d="M 120.5,178.5 C 120.5,199.5 120.5,220.5 120.5,241.5C 122.514,241.392 124.18,242.058 125.5,243.5C 125.5,244.833 124.833,245.5 123.5,245.5C 122.5,245.5 121.5,245.5 120.5,245.5C 120.5,264.833 120.5,284.167 120.5,303.5C 119.978,289.799 118.978,276.132 117.5,262.5C 117.5,261.833 117.167,261.5 116.5,261.5C 116.467,235.147 116.467,208.814 116.5,182.5C 117.15,180.565 117.483,178.565 117.5,176.5C 119.179,176.285 120.179,176.952 120.5,178.5 Z"/></g>
<g><path style="opacity:1" fill="#3c24aa" d="M 384.5,238.5 C 399.215,238.2 413.882,238.533 428.5,239.5C 429.833,242.167 429.833,244.833 428.5,247.5C 428.167,247.5 427.833,247.5 427.5,247.5C 427.5,246.167 427.5,244.833 427.5,243.5C 425.143,243.337 422.81,243.503 420.5,244C 419.751,245.734 419.251,247.567 419,249.5C 417.179,246.851 414.679,245.184 411.5,244.5C 412.5,243.833 413.5,243.167 414.5,242.5C 409.869,241.338 405.202,241.172 400.5,242C 399.975,242.692 399.308,243.192 398.5,243.5C 396.968,240.25 395.134,239.916 393,242.5C 392.023,244.74 391.523,247.073 391.5,249.5C 391.631,250.239 391.464,250.906 391,251.5C 390.259,250.359 389.425,250.359 388.5,251.5C 387.808,250.975 387.308,250.308 387,249.5C 386.667,251.5 386.333,253.5 386,255.5C 385.667,255.167 385.333,254.833 385,254.5C 384.826,259.351 384.326,264.018 383.5,268.5C 383.5,267.167 382.833,266.5 381.5,266.5C 382.189,258.79 382.689,250.79 383,242.5C 383.21,240.942 383.71,239.609 384.5,238.5 Z"/></g>
<g><path style="opacity:1" fill="#4a25b9" d="M 359.5,252.5 C 358.883,252.611 358.383,252.944 358,253.5C 357.501,257.821 357.334,262.154 357.5,266.5C 357.737,267.791 357.404,268.791 356.5,269.5C 356.662,267.473 356.495,265.473 356,263.5C 353.838,263.94 351.671,264.273 349.5,264.5C 348.269,263.349 348.269,262.183 349.5,261C 347.971,258.264 346.471,258.098 345,260.5C 343.787,258.075 342.621,255.741 341.5,253.5C 341.082,252.778 340.416,252.278 339.5,252C 335.833,251.667 332.167,251.333 328.5,251C 327.594,249.301 327.261,247.467 327.5,245.5C 330.167,245.5 332.833,245.5 335.5,245.5C 335.222,243.654 335.889,242.32 337.5,241.5C 343.546,242.906 349.546,244.239 355.5,245.5C 360.785,243.727 366.118,243.06 371.5,243.5C 372.167,243.833 372.833,244.167 373.5,244.5C 371.604,245.466 369.604,245.799 367.5,245.5C 367.5,246.5 367.5,247.5 367.5,248.5C 369.665,248.116 371.332,248.783 372.5,250.5C 369.572,251.484 366.572,251.817 363.5,251.5C 363.5,250.167 363.5,248.833 363.5,247.5C 360.09,247.384 358.756,249.05 359.5,252.5 Z"/></g>
<g><path style="opacity:0.643" fill="#37238a" d="M 466.5,235.5 C 464.533,237.489 462.2,238.989 459.5,240C 451.288,241.042 445.955,245.542 443.5,253.5C 442.778,254.551 441.778,255.218 440.5,255.5C 444.822,243.177 453.489,236.51 466.5,235.5 Z"/></g>
<g><path style="opacity:1" fill="#3d23b0" d="M 227.5,254.5 C 227.435,254.938 227.601,255.272 228,255.5C 230.588,252.8 233.421,250.467 236.5,248.5C 240.621,245.591 244.621,242.425 248.5,239C 253.23,237.348 255.896,238.848 256.5,243.5C 253.626,244.844 250.626,246.01 247.5,247C 251.032,251.232 250.032,253.065 244.5,252.5C 237.542,248.298 232.875,250.298 230.5,258.5C 228.235,259.647 225.902,259.814 223.5,259C 224.803,255.532 224.803,252.032 223.5,248.5C 223.167,248.167 222.833,247.833 222.5,247.5C 221.719,248.729 221.219,250.062 221,251.5C 218.884,250.31 216.884,248.977 215,247.5C 214.721,250.457 213.887,253.123 212.5,255.5C 212.334,250.156 212.501,244.823 213,239.5C 215.201,232.692 219.701,230.692 226.5,233.5C 226.175,240.687 226.509,247.687 227.5,254.5 Z"/></g>
<g><path style="opacity:1" fill="#382397" d="M 247.5,255.5 C 246.041,255.433 244.708,255.766 243.5,256.5C 242.174,254.805 242.507,253.472 244.5,252.5C 250.032,253.065 251.032,251.232 247.5,247C 250.626,246.01 253.626,244.844 256.5,243.5C 255.896,238.848 253.23,237.348 248.5,239C 244.621,242.425 240.621,245.591 236.5,248.5C 241.271,244.231 245.938,239.731 250.5,235C 254.366,235.821 257.533,237.987 260,241.5C 260.667,242.5 260.667,243.5 260,244.5C 256.258,248.747 252.092,252.414 247.5,255.5 Z"/></g>
<g><path style="opacity:1" fill="#4424b6" d="M 427.5,247.5 C 425.804,247.685 424.471,248.519 423.5,250C 415.118,250.803 406.785,250.636 398.5,249.5C 397.516,252.428 397.183,255.428 397.5,258.5C 402.167,258.5 406.833,258.5 411.5,258.5C 407.148,259.246 402.648,259.913 398,260.5C 397.055,260.095 396.388,259.428 396,258.5C 395.503,255.854 395.336,253.187 395.5,250.5C 394.041,250.567 392.708,250.234 391.5,249.5C 391.523,247.073 392.023,244.74 393,242.5C 395.134,239.916 396.968,240.25 398.5,243.5C 399.308,243.192 399.975,242.692 400.5,242C 405.202,241.172 409.869,241.338 414.5,242.5C 413.5,243.167 412.5,243.833 411.5,244.5C 414.679,245.184 417.179,246.851 419,249.5C 419.251,247.567 419.751,245.734 420.5,244C 422.81,243.503 425.143,243.337 427.5,243.5C 427.5,244.833 427.5,246.167 427.5,247.5 Z"/></g>
<g><path style="opacity:0.725" fill="#44288e" d="M 427.5,247.5 C 427.833,247.5 428.167,247.5 428.5,247.5C 428.703,249.39 428.037,250.89 426.5,252C 417.479,252.431 408.479,252.431 399.5,252C 398.594,253.699 398.261,255.533 398.5,257.5C 403.5,257.5 408.5,257.5 413.5,257.5C 413.158,258.338 412.492,258.672 411.5,258.5C 406.833,258.5 402.167,258.5 397.5,258.5C 397.183,255.428 397.516,252.428 398.5,249.5C 406.785,250.636 415.118,250.803 423.5,250C 424.471,248.519 425.804,247.685 427.5,247.5 Z"/></g>
<g><path style="opacity:1" fill="#5327b3" d="M 476.5,243.5 C 479.093,244.754 481.427,246.42 483.5,248.5C 483.863,251.563 484.53,254.563 485.5,257.5C 485.167,258.5 484.833,259.5 484.5,260.5C 479.986,262.447 475.652,262.447 471.5,260.5C 469.435,254.965 465.435,252.798 459.5,254C 455.234,256.762 451.901,260.262 449.5,264.5C 448.883,264.611 448.383,264.944 448,265.5C 447.667,270.167 447.333,274.833 447,279.5C 446.667,275.167 446.333,270.833 446,266.5C 444.887,265.289 443.72,265.289 442.5,266.5C 441.548,268.045 441.215,269.712 441.5,271.5C 440.5,271.5 439.5,271.5 438.5,271.5C 438.881,266.123 439.547,260.79 440.5,255.5C 441.778,255.218 442.778,254.551 443.5,253.5C 445.035,255.052 446.869,256.385 449,257.5C 450.269,256.095 450.769,254.429 450.5,252.5C 447.519,252.456 447.186,252.123 449.5,251.5C 454.058,252.561 458.558,252.227 463,250.5C 475.102,253.761 475.602,252.427 464.5,246.5C 468.122,245.675 471.789,245.175 475.5,245C 476.056,244.617 476.389,244.117 476.5,243.5 Z"/></g>
<g><path style="opacity:1" fill="#6428bd" d="M 244.5,252.5 C 242.507,253.472 242.174,254.805 243.5,256.5C 241.743,259.423 239.243,261.423 236,262.5C 235.505,264.473 235.338,266.473 235.5,268.5C 237.38,268.229 238.713,268.896 239.5,270.5C 234.285,268.355 228.952,267.522 223.5,268C 222.382,266.926 221.382,265.76 220.5,264.5C 220.684,267.801 220.018,271.134 218.5,274.5C 217.066,272.78 216.233,270.78 216,268.5C 215.667,268.167 215.333,267.833 215,267.5C 214.517,268.448 214.351,269.448 214.5,270.5C 212.612,268.012 211.945,265.012 212.5,261.5C 212.5,259.5 212.5,257.5 212.5,255.5C 213.887,253.123 214.721,250.457 215,247.5C 216.884,248.977 218.884,250.31 221,251.5C 221.219,250.062 221.719,248.729 222.5,247.5C 222.833,247.833 223.167,248.167 223.5,248.5C 224.803,252.032 224.803,255.532 223.5,259C 225.902,259.814 228.235,259.647 230.5,258.5C 232.875,250.298 237.542,248.298 244.5,252.5 Z"/></g>
<g><path style="opacity:0.769" fill="#492383" d="M 483.5,248.5 C 484.79,249.058 485.623,250.058 486,251.5C 488.049,255.315 487.882,258.982 485.5,262.5C 481.33,264.352 476.996,264.852 472.5,264C 471.663,262.989 471.33,261.822 471.5,260.5C 475.652,262.447 479.986,262.447 484.5,260.5C 484.833,259.5 485.167,258.5 485.5,257.5C 484.53,254.563 483.863,251.563 483.5,248.5 Z"/></g>
<g><path style="opacity:1" fill="#6a2ca3" d="M 295.5,259.5 C 298.982,259.068 301.315,260.401 302.5,263.5C 300.593,268.312 298.426,272.979 296,277.5C 292.795,280.904 289.962,280.404 287.5,276C 290.411,270.597 293.078,265.097 295.5,259.5 Z"/></g>
<g><path style="opacity:1" fill="#6f28bb" d="M 391.5,249.5 C 392.708,250.234 394.041,250.567 395.5,250.5C 395.336,253.187 395.503,255.854 396,258.5C 396.388,259.428 397.055,260.095 398,260.5C 402.648,259.913 407.148,259.246 411.5,258.5C 412.492,258.672 413.158,258.338 413.5,257.5C 413.917,256.876 414.584,256.543 415.5,256.5C 418.406,256.643 420.739,257.643 422.5,259.5C 422.895,263.185 423.062,266.852 423,270.5C 419.487,271.821 415.987,272.821 412.5,273.5C 407.86,272.603 403.194,272.436 398.5,273C 397.944,273.383 397.611,273.883 397.5,274.5C 395.716,275.574 394.549,277.24 394,279.5C 393.667,279.167 393.333,278.833 393,278.5C 392.667,279.5 392.333,280.5 392,281.5C 390.211,279.771 388.044,279.104 385.5,279.5C 385.198,282.373 384.531,285.039 383.5,287.5C 383.5,281.167 383.5,274.833 383.5,268.5C 384.326,264.018 384.826,259.351 385,254.5C 385.333,254.833 385.667,255.167 386,255.5C 386.333,253.5 386.667,251.5 387,249.5C 387.308,250.308 387.808,250.975 388.5,251.5C 389.425,250.359 390.259,250.359 391,251.5C 391.464,250.906 391.631,250.239 391.5,249.5 Z"/></g>
<g><path style="opacity:1" fill="#8029c0" d="M 239.5,270.5 C 241.852,272.626 241.519,274.626 238.5,276.5C 239,276.833 239.5,277.167 240,277.5C 242.24,274.983 244.406,274.983 246.5,277.5C 245.739,278.391 244.739,279.058 243.5,279.5C 241.5,279 239.5,278.5 237.5,278C 236.036,276.136 235.036,273.969 234.5,271.5C 233.516,274.428 233.183,277.428 233.5,280.5C 231.896,279.713 231.229,278.38 231.5,276.5C 227.44,275.848 225.44,277.515 225.5,281.5C 224.25,281.577 223.417,282.244 223,283.5C 222.021,279.88 219.855,277.213 216.5,275.5C 215.678,273.861 215.011,272.195 214.5,270.5C 214.351,269.448 214.517,268.448 215,267.5C 215.333,267.833 215.667,268.167 216,268.5C 216.233,270.78 217.066,272.78 218.5,274.5C 220.018,271.134 220.684,267.801 220.5,264.5C 221.382,265.76 222.382,266.926 223.5,268C 228.952,267.522 234.285,268.355 239.5,270.5 Z"/></g>
<g><path style="opacity:0.875" fill="#452682" d="M 189.5,239.5 C 190.826,263.695 182.493,283.862 164.5,300C 159.447,304.525 153.781,308.025 147.5,310.5C 147.5,309.5 147.5,308.5 147.5,307.5C 175.746,291.008 188.079,266.342 184.5,233.5C 185.268,232.737 185.768,231.737 186,230.5C 186.667,233.167 187.333,235.833 188,238.5C 188.383,239.056 188.883,239.389 189.5,239.5 Z"/></g>
<g><path style="opacity:1" fill="#782abc" d="M 341.5,253.5 C 342.621,255.741 343.787,258.075 345,260.5C 346.471,258.098 347.971,258.264 349.5,261C 348.269,262.183 348.269,263.349 349.5,264.5C 351.671,264.273 353.838,263.94 356,263.5C 356.495,265.473 356.662,267.473 356.5,269.5C 356.5,272.833 356.5,276.167 356.5,279.5C 355.849,278.909 355.182,278.243 354.5,277.5C 353.667,278.5 352.833,279.5 352,280.5C 349.263,279.39 346.429,279.223 343.5,280C 341.843,280.231 340.509,281.065 339.5,282.5C 339.826,273.983 339.493,265.65 338.5,257.5C 338.833,256.833 339.167,256.167 339.5,255.5C 340.833,255.5 341.5,254.833 341.5,253.5 Z"/></g>
<g><path style="opacity:0.881" fill="#672c93" d="M 440.5,255.5 C 439.547,260.79 438.881,266.123 438.5,271.5C 437.775,280.16 439.442,288.16 443.5,295.5C 443.703,297.044 444.37,298.378 445.5,299.5C 445.376,300.107 445.043,300.44 444.5,300.5C 436.974,289.674 434.474,277.674 437,264.5C 437.505,261.135 438.672,258.135 440.5,255.5 Z"/></g>
<g><path style="opacity:0.122" fill="#592d87" d="M 422.5,259.5 C 423.222,259.918 423.722,260.584 424,261.5C 426.833,271.834 423,275.834 412.5,273.5C 415.987,272.821 419.487,271.821 423,270.5C 423.062,266.852 422.895,263.185 422.5,259.5 Z"/></g>
<g><path style="opacity:0.78" fill="#412181" d="M 133.5,302.5 C 133.631,303.239 133.464,303.906 133,304.5C 132.329,303.748 131.496,303.414 130.5,303.5C 128.732,295.819 129.898,288.485 134,281.5C 140.645,277.854 145.978,272.854 150,266.5C 152.227,260.218 151.727,254.218 148.5,248.5C 143.396,243.687 138.396,243.521 133.5,248C 137.791,253.988 137.458,259.654 132.5,265C 123.85,265.325 120.683,261.159 123,252.5C 123.635,251.034 124.469,249.7 125.5,248.5C 124.807,247.482 124.141,246.482 123.5,245.5C 124.833,245.5 125.5,244.833 125.5,243.5C 126.531,244.355 127.697,245.022 129,245.5C 137.666,239.561 145.666,240.228 153,247.5C 156.518,255.655 156.185,263.655 152,271.5C 147.228,276.874 141.895,281.54 136,285.5C 134.837,291.103 134.004,296.77 133.5,302.5 Z M 128.5,250.5 C 131.436,251.515 132.769,253.682 132.5,257C 132.623,261.26 130.79,262.426 127,260.5C 124.925,256.794 125.425,253.461 128.5,250.5 Z"/></g>
<g><path style="opacity:0.816" fill="#682999" d="M 247.5,255.5 C 243.881,258.452 240.548,261.785 237.5,265.5C 244.891,272.887 251.891,280.554 258.5,288.5C 253.543,285.876 249.543,282.209 246.5,277.5C 244.406,274.983 242.24,274.983 240,277.5C 239.5,277.167 239,276.833 238.5,276.5C 241.519,274.626 241.852,272.626 239.5,270.5C 238.713,268.896 237.38,268.229 235.5,268.5C 235.338,266.473 235.505,264.473 236,262.5C 239.243,261.423 241.743,259.423 243.5,256.5C 244.708,255.766 246.041,255.433 247.5,255.5 Z"/></g>
<g><path style="opacity:1" fill="#962dbd" d="M 210.5,260.5 C 211.167,260.833 211.833,261.167 212.5,261.5C 211.945,265.012 212.612,268.012 214.5,270.5C 215.011,272.195 215.678,273.861 216.5,275.5C 219.855,277.213 222.021,279.88 223,283.5C 223.417,282.244 224.25,281.577 225.5,281.5C 225.12,283.698 225.787,285.365 227.5,286.5C 227.5,286.833 227.5,287.167 227.5,287.5C 225.969,292.25 225.302,297.25 225.5,302.5C 220.678,303.065 216.178,302.399 212,300.5C 211.627,298.302 211.127,296.135 210.5,294C 211.809,283.36 211.809,272.86 210.5,262.5C 210.5,261.833 210.5,261.167 210.5,260.5 Z"/></g>
<g><path style="opacity:1" fill="#9e2dc2" d="M 356.5,279.5 C 356.704,288.574 356.037,297.574 354.5,306.5C 349.5,306.5 344.5,306.5 339.5,306.5C 339.5,298.5 339.5,290.5 339.5,282.5C 340.509,281.065 341.843,280.231 343.5,280C 346.429,279.223 349.263,279.39 352,280.5C 352.833,279.5 353.667,278.5 354.5,277.5C 355.182,278.243 355.849,278.909 356.5,279.5 Z"/></g>
<g><path style="opacity:0.027" fill="#7d3496" d="M 483.5,295.5 C 483.195,293.081 483.195,290.414 483.5,287.5C 481.325,287.318 479.325,286.651 477.5,285.5C 474.205,286.816 471.205,288.649 468.5,291C 464.167,291.667 459.833,291.667 455.5,291C 454.177,290.184 453.511,289.017 453.5,287.5C 456.678,290.22 460.345,291.054 464.5,290C 468.434,287.116 472.601,284.616 477,282.5C 479.922,283.755 482.589,285.422 485,287.5C 485.718,290.407 485.218,293.074 483.5,295.5 Z"/></g>
<g><path style="opacity:1" fill="#9e2dc1" d="M 397.5,274.5 C 397.5,278.5 397.5,282.5 397.5,286.5C 406.329,286.979 415.329,287.146 424.5,287C 425.812,291.803 425.812,296.636 424.5,301.5C 410.85,302.499 397.183,302.833 383.5,302.5C 383.5,297.5 383.5,292.5 383.5,287.5C 384.531,285.039 385.198,282.373 385.5,279.5C 388.044,279.104 390.211,279.771 392,281.5C 392.333,280.5 392.667,279.5 393,278.5C 393.333,278.833 393.667,279.167 394,279.5C 394.549,277.24 395.716,275.574 397.5,274.5 Z"/></g>
<g><path style="opacity:1" fill="#9c2dc4" d="M 246.5,277.5 C 249.543,282.209 253.543,285.876 258.5,288.5C 261.025,294.817 258.858,298.15 252,298.5C 247.073,296.332 243.739,292.665 242,287.5C 241.282,288.451 240.449,288.617 239.5,288C 237.771,285.297 235.771,282.797 233.5,280.5C 233.183,277.428 233.516,274.428 234.5,271.5C 235.036,273.969 236.036,276.136 237.5,278C 239.5,278.5 241.5,279 243.5,279.5C 244.739,279.058 245.739,278.391 246.5,277.5 Z"/></g>
<g><path style="opacity:0.965" fill="#7d2c9e" d="M 233.5,280.5 C 235.771,282.797 237.771,285.297 239.5,288C 240.449,288.617 241.282,288.451 242,287.5C 243.739,292.665 247.073,296.332 252,298.5C 258.858,298.15 261.025,294.817 258.5,288.5C 261.698,289.854 262.864,292.187 262,295.5C 258.989,297.847 255.989,300.181 253,302.5C 244.512,295.346 236.679,287.512 229.5,279C 229.167,278.833 228.833,278.667 228.5,278.5C 227.52,281.086 227.187,283.753 227.5,286.5C 225.787,285.365 225.12,283.698 225.5,281.5C 225.44,277.515 227.44,275.848 231.5,276.5C 231.229,278.38 231.896,279.713 233.5,280.5 Z"/></g>
<g><path style="opacity:0.65" fill="#742b96" d="M 359.5,254.5 C 359.199,271.537 358.366,288.537 357,305.5C 356.5,306 356,306.5 355.5,307C 349.984,307.817 344.65,307.651 339.5,306.5C 344.5,306.5 349.5,306.5 354.5,306.5C 356.037,297.574 356.704,288.574 356.5,279.5C 356.5,276.167 356.5,272.833 356.5,269.5C 357.404,268.791 357.737,267.791 357.5,266.5C 358.167,262.5 358.833,258.5 359.5,254.5 Z"/></g>
<g><path style="opacity:1" fill="#9d2cc3" d="M 449.5,264.5 C 447.189,272.923 448.522,280.59 453.5,287.5C 453.511,289.017 454.177,290.184 455.5,291C 459.833,291.667 464.167,291.667 468.5,291C 471.205,288.649 474.205,286.816 477.5,285.5C 479.325,286.651 481.325,287.318 483.5,287.5C 483.195,290.414 483.195,293.081 483.5,295.5C 483.5,296.167 483.167,296.5 482.5,296.5C 479.076,298.418 476.076,300.918 473.5,304C 470.003,306.118 466.67,305.951 463.5,303.5C 461.431,303.824 461.098,304.658 462.5,306C 459.12,306.938 456.12,306.271 453.5,304C 449.96,301.399 446.627,298.565 443.5,295.5C 439.442,288.16 437.775,280.16 438.5,271.5C 439.5,271.5 440.5,271.5 441.5,271.5C 441.215,269.712 441.548,268.045 442.5,266.5C 443.72,265.289 444.887,265.289 446,266.5C 446.333,270.833 446.667,275.167 447,279.5C 447.333,274.833 447.667,270.167 448,265.5C 448.383,264.944 448.883,264.611 449.5,264.5 Z"/></g>
<g><path style="opacity:0.851" fill="#7f2e9c" d="M 381.5,266.5 C 382.833,266.5 383.5,267.167 383.5,268.5C 383.5,274.833 383.5,281.167 383.5,287.5C 383.5,292.5 383.5,297.5 383.5,302.5C 397.183,302.833 410.85,302.499 424.5,301.5C 425.812,296.636 425.812,291.803 424.5,287C 415.329,287.146 406.329,286.979 397.5,286.5C 406.83,285.833 416.163,285.667 425.5,286C 426.958,288.077 427.624,290.41 427.5,293C 427.163,296.523 426.663,300.023 426,303.5C 411.53,304.827 397.03,304.827 382.5,303.5C 381.501,291.185 381.168,278.851 381.5,266.5 Z"/></g>
<g><path style="opacity:0.639" fill="#773094" d="M 210.5,262.5 C 211.809,272.86 211.809,283.36 210.5,294C 211.127,296.135 211.627,298.302 212,300.5C 216.178,302.399 220.678,303.065 225.5,302.5C 225.302,297.25 225.969,292.25 227.5,287.5C 227.49,292.915 226.823,298.248 225.5,303.5C 224.914,303.709 224.414,304.043 224,304.5C 219.333,303.833 214.667,303.167 210,302.5C 210.055,289.175 210.222,275.842 210.5,262.5 Z"/></g>
<g><path style="opacity:0.771" fill="#7d3498" d="M 338.5,257.5 C 339.493,265.65 339.826,273.983 339.5,282.5C 339.5,290.5 339.5,298.5 339.5,306.5C 338.175,302.724 337.509,298.557 337.5,294C 338.152,281.841 338.486,269.674 338.5,257.5 Z"/></g>
<g><path style="opacity:1" fill="#8b2ba8" d="M 443.5,295.5 C 446.627,298.565 449.96,301.399 453.5,304C 456.12,306.271 459.12,306.938 462.5,306C 461.098,304.658 461.431,303.824 463.5,303.5C 466.67,305.951 470.003,306.118 473.5,304C 476.076,300.918 479.076,298.418 482.5,296.5C 474.621,309.071 463.954,312.238 450.5,306C 448.004,304.669 446.004,302.836 444.5,300.5C 445.043,300.44 445.376,300.107 445.5,299.5C 444.37,298.378 443.703,297.044 443.5,295.5 Z"/></g>
<g><path style="opacity:0.725" fill="#592681" d="M 44.5,294.5 C 53.8668,292.694 58.0335,296.694 57,306.5C 55.3573,308.977 53.524,311.31 51.5,313.5C 53.5341,316.369 56.0341,318.702 59,320.5C 64.3765,313.554 70.3765,312.887 77,318.5C 79.0316,323.081 78.8649,327.581 76.5,332C 79.4132,334.524 82.7465,335.857 86.5,336C 88.2179,329.101 92.5512,325.934 99.5,326.5C 96.0979,326.972 93.0979,328.472 90.5,331C 91.0944,331.464 91.7611,331.631 92.5,331.5C 91.0731,334.024 89.9064,336.69 89,339.5C 83.5368,339.968 78.3701,338.635 73.5,335.5C 73.1667,334.833 72.8333,334.167 72.5,333.5C 75.7706,328.038 75.1039,323.205 70.5,319C 65.5464,318.909 61.713,321.076 59,325.5C 54.2812,322.283 50.4478,318.283 47.5,313.5C 49.2713,310.553 51.2713,307.719 53.5,305C 52.9309,302.285 51.9309,299.785 50.5,297.5C 51.552,297.649 52.552,297.483 53.5,297C 50.8934,294.895 47.8934,294.062 44.5,294.5 Z"/></g>
<g><path style="opacity:0.82" fill="#5f1e97" d="M 117.5,262.5 C 118.978,276.132 119.978,289.799 120.5,303.5C 123.833,303.5 127.167,303.5 130.5,303.5C 131.496,303.414 132.329,303.748 133,304.5C 133.464,303.906 133.631,303.239 133.5,302.5C 138.039,304.235 140.039,307.569 139.5,312.5C 139.821,314.048 140.821,314.715 142.5,314.5C 142.66,316.199 142.494,317.866 142,319.5C 141.583,318.244 140.75,317.577 139.5,317.5C 135.688,316.676 131.688,316.176 127.5,316C 129.315,315.243 130.981,314.41 132.5,313.5C 133.5,313.5 134.5,313.5 135.5,313.5C 135.739,311.533 135.406,309.699 134.5,308C 129.845,307.501 125.179,307.334 120.5,307.5C 120.5,309.5 120.5,311.5 120.5,313.5C 120.029,314.901 119.362,316.234 118.5,317.5C 117.5,299.179 117.167,280.845 117.5,262.5 Z M 132.5,313.5 C 128.5,313.5 124.5,313.5 120.5,313.5C 120.5,311.5 120.5,309.5 120.5,307.5C 125.179,307.334 129.845,307.501 134.5,308C 135.406,309.699 135.739,311.533 135.5,313.5C 134.5,313.5 133.5,313.5 132.5,313.5 Z"/></g>
<g><path style="opacity:0.808" fill="#6f2891" d="M 116.5,261.5 C 117.167,261.5 117.5,261.833 117.5,262.5C 117.167,280.845 117.5,299.179 118.5,317.5C 119.362,316.234 120.029,314.901 120.5,313.5C 124.5,313.5 128.5,313.5 132.5,313.5C 130.981,314.41 129.315,315.243 127.5,316C 131.688,316.176 135.688,316.676 139.5,317.5C 140.75,317.577 141.583,318.244 142,319.5C 142.494,317.866 142.66,316.199 142.5,314.5C 140.821,314.715 139.821,314.048 139.5,312.5C 141.611,310.077 144.278,308.41 147.5,307.5C 147.5,308.5 147.5,309.5 147.5,310.5C 146.199,311.64 145.032,312.973 144,314.5C 143.796,321.007 143.963,327.341 144.5,333.5C 143.419,339.749 139.753,343.582 133.5,345C 127.916,345.806 122.416,345.639 117,344.5C 116.5,316.835 116.333,289.169 116.5,261.5 Z M 139.5,317.5 C 140.301,319.042 140.634,320.708 140.5,322.5C 133.833,322.5 127.167,322.5 120.5,322.5C 120.5,320.833 120.5,319.167 120.5,317.5C 126.833,317.5 133.167,317.5 139.5,317.5 Z M 132.5,313.5 C 128.5,313.5 124.5,313.5 120.5,313.5C 120.5,311.5 120.5,309.5 120.5,307.5C 125.179,307.334 129.845,307.501 134.5,308C 135.406,309.699 135.739,311.533 135.5,313.5C 134.5,313.5 133.5,313.5 132.5,313.5 Z M 120.5,326.5 C 126.868,326.17 133.202,326.504 139.5,327.5C 140.711,328.72 140.711,329.887 139.5,331C 133.175,331.5 126.842,331.666 120.5,331.5C 120.5,329.833 120.5,328.167 120.5,326.5 Z M 120.5,335.5 C 126.868,335.17 133.202,335.504 139.5,336.5C 138.076,338.718 136.076,340.218 133.5,341C 129.725,341.218 126.058,341.384 122.5,341.5C 120.717,339.977 120.051,337.977 120.5,335.5 Z"/></g>
<g><path style="opacity:0.849" fill="#6b278f" d="M 110.5,290.5 C 111.496,290.414 112.329,290.748 113,291.5C 113.333,292.833 113.667,294.167 114,295.5C 114.465,311.559 114.465,327.559 114,343.5C 111.104,345.745 107.937,346.078 104.5,344.5C 104.091,340.204 102.924,336.204 101,332.5C 98.4583,330.162 95.6249,329.828 92.5,331.5C 91.7611,331.631 91.0944,331.464 90.5,331C 93.0979,328.472 96.0979,326.972 99.5,326.5C 105.367,329.228 107.867,333.895 107,340.5C 108,341.833 109,341.833 110,340.5C 110,329.423 110.166,318.423 110.5,307.5C 110.435,302.914 109.768,298.58 108.5,294.5C 106.611,293.678 104.611,292.845 102.5,292C 104.527,291.502 106.527,291.669 108.5,292.5C 109.713,292.253 110.38,291.586 110.5,290.5 Z"/></g>
</svg>
